# xmcd CD database file
#
# Track frame offsets:
#	150
#	19212
#	36422
#	52455
#	75585
#	93392
#	108105
#	124127
#	139727
#	156480
#	179127
#	195700
#	212915
#	229832
#	246785
#	263527
#	282830
#	301207
#	317932
#	336532
#
# Disc length: 4725 seconds
#
# Revision: 1
# Processed by: cddbd v1.5.2PL0 Copyright (c) Steve Scherf et al.
# Submitted via: jetAudio 5
#
DISCID=32127314
DTITLE=Various Artist - VIVA Party Dance Show '97
DYEAR=1900
DGENRE=Alternative
TTITLE0=Elton John - Candle In The Wind 1997
TTITLE1=Will Smith - Men In Black
TTITLE2=Backstreet Boys - As Long As You Love Me
TTITLE3=Puff Daddy - I'll Be Missing You
TTITLE4=Nana - He's Coming
TTITLE5=Aqua - Barbie Girl
TTITLE6=Chumbawamba - Tubthumping
TTITLE7=Aaron Carter - Crush On You
TTITLE8=Coolio - C U When You Get There
TTITLE9=Mariah Carey - Honey
TTITLE10=Janet Jackson - Got Till It's Gone
TTITLE11=Tic Tac Toe - Ich Wär So Gern So Blöd Wie Du
TTITLE12=Alexia - Uh La La La
TTITLE13=Scooter - The Age Of Love
TTITLE14=The Kelly Family - Because It's Love
TTITLE15=Eros Ramazzotti - Quanto Amore Sei
TTITLE16=C-Block - Summertime
TTITLE17=Robin Cook - Comanchero
TTITLE18=The Rolling Stones - Anybody Seen My Baby?
TTITLE19=Elton John - Soemthing About The Way You Look Toni
EXTD=
EXTT0=
EXTT1=
EXTT2=
EXTT3=
EXTT4=
EXTT5=
EXTT6=
EXTT7=
EXTT8=
EXTT9=
EXTT10=
EXTT11=
EXTT12=
EXTT13=
EXTT14=
EXTT15=
EXTT16=
EXTT17=
EXTT18=
EXTT19=
PLAYORDER=
